<svg xmlns="http://www.w3.org/2000/svg" width="40.976" height="32.488" viewBox="0 0 40.976 32.488"><defs><style>.a{fill:none;stroke:#b3c100;stroke-width:2px;}.b{fill:#b3c100;}</style></defs><g transform="translate(22.521 20.463)"><line class="a" y2="9.219" transform="translate(9.295 1.587)"/><g transform="translate(0 0)"><path class="b" d="M3.627,0c2,0,5.608.5,5.608,1.667s-3.6,2.565-5.608,2.565S0,3.284,0,2.116,1.624,0,3.627,0Z"/><path class="b" d="M5.608,0C3.6,0,0,.5,0,1.667S3.6,4.232,5.608,4.232s3.627-.947,3.627-2.116S7.611,0,5.608,0Z" transform="translate(9.219)"/></g></g><g transform="translate(0 0)"><path class="b" d="M3.776-39.936H27.518v3.225H7.878v10.663H21.794v3.329H7.878V-10.7H31.944v3.225H3.776Z" transform="translate(5.263 39.936)"/><path class="b" d="M5.391-39.872h9.124V-36.8H10.883v26.372h3.809v3.017H5.184v-3.069H8.816V-36.8H5.391Z" transform="translate(-5.184 39.902)"/></g></svg>