<svg xmlns="http://www.w3.org/2000/svg" width="32" height="32" viewBox="0 0 32 32"><defs><style>.a,.b{fill:none;}.b{stroke:#b3c100;}.c,.e{fill:#b3c100;}.d,.e{stroke:none;}</style></defs><g transform="translate(2292 3101)"><g class="a" transform="translate(-2292 -3101)"><path class="d" d="M16,0A16,16,0,1,1,0,16,16,16,0,0,1,16,0Z"/><path class="e" d="M 16 1 C 11.99334907531738 1 8.226520538330078 2.560270309448242 5.393400192260742 5.393400192260742 C 2.560270309448242 8.226520538330078 1 11.99334907531738 1 16 C 1 20.00664901733398 2.560270309448242 23.77347946166992 5.393400192260742 26.60659980773926 C 8.226520538330078 29.43972969055176 11.99334907531738 31 16 31 C 20.00664901733398 31 23.77347946166992 29.43972969055176 26.60659980773926 26.60659980773926 C 29.43972969055176 23.77347946166992 31 20.00664901733398 31 16 C 31 11.99334907531738 29.43972969055176 8.226520538330078 26.60659980773926 5.393400192260742 C 23.77347946166992 2.560270309448242 20.00664901733398 1 16 1 M 16 0 C 24.8365592956543 0 32 7.163440704345703 32 16 C 32 24.8365592956543 24.8365592956543 32 16 32 C 7.163440704345703 32 0 24.8365592956543 0 16 C 0 7.163440704345703 7.163440704345703 0 16 0 Z"/></g><g transform="translate(-2287.671 -3094.24)"><g transform="translate(12.869 11.693)"><line class="b" y2="5.268" transform="translate(5.311 0.907)"/><g transform="translate(0 0)"><path class="c" d="M2.073,0c1.145,0,3.2.285,3.2.953s-2.06,1.466-3.2,1.466S0,1.877,0,1.209.928,0,2.073,0Z"/><path class="c" d="M3.2,0C2.06,0,0,.285,0,.953S2.06,2.418,3.2,2.418s2.073-.541,2.073-1.209S4.349,0,3.2,0Z" transform="translate(5.268)"/></g></g><g transform="translate(0 0)"><path class="c" d="M3.776-39.936H17.343v1.843H6.12V-32h7.952v1.9H6.12v6.866H19.872v1.843H3.776Z" transform="translate(1.389 39.936)"/><path class="c" d="M5.3-39.872h5.214v1.754H8.44v15.07h2.177v1.724H5.184v-1.754H7.259v-15.04H5.3Z" transform="translate(-5.184 39.889)"/></g></g></g></svg>