<svg xmlns="http://www.w3.org/2000/svg" width="56" height="56" viewBox="0 0 56 56"><defs><style>.a,.b{fill:none;}.b{stroke:#b3c100;stroke-width:2px;}.c,.e{fill:#b3c100;}.d,.e{stroke:none;}</style></defs><g class="a" transform="translate(0 0)"><path class="d" d="M28,0A28,28,0,1,1,0,28,28,28,0,0,1,28,0Z"/><path class="e" d="M 28 2 C 24.48913955688477 2 21.08435821533203 2.687160491943359 17.88024139404297 4.042388916015625 C 14.78442001342773 5.351810455322266 12.00366973876953 7.226779937744141 9.615219116210938 9.615219116210938 C 7.226779937744141 12.00366973876953 5.351810455322266 14.78442001342773 4.042388916015625 17.88024139404297 C 2.687160491943359 21.08435821533203 2 24.48913955688477 2 28 C 2 31.51086044311523 2.687160491943359 34.91564178466797 4.042388916015625 38.11975860595703 C 5.351810455322266 41.21557998657227 7.226779937744141 43.99633026123047 9.615219116210938 46.38478088378906 C 12.00366973876953 48.77322006225586 14.78442001342773 50.64818954467773 17.88024139404297 51.95761108398438 C 21.08435821533203 53.31283950805664 24.48913955688477 54 28 54 C 31.51086044311523 54 34.91564178466797 53.31283950805664 38.11975860595703 51.95761108398438 C 41.21557998657227 50.64818954467773 43.99633026123047 48.77322006225586 46.38478088378906 46.38478088378906 C 48.77322006225586 43.99633026123047 50.64818954467773 41.21557998657227 51.95761108398438 38.11975860595703 C 53.31283950805664 34.91564178466797 54 31.51086044311523 54 28 C 54 24.48913955688477 53.31283950805664 21.08435821533203 51.95761108398438 17.88024139404297 C 50.64818954467773 14.78442001342773 48.77322006225586 12.00366973876953 46.38478088378906 9.615219116210938 C 43.99633026123047 7.226779937744141 41.21557998657227 5.351810455322266 38.11975860595703 4.042388916015625 C 34.91564178466797 2.687160491943359 31.51086044311523 2 28 2 M 28 0 C 43.46397018432617 0 56 12.53602981567383 56 28 C 56 43.46397018432617 43.46397018432617 56 28 56 C 12.53602981567383 56 0 43.46397018432617 0 28 C 0 12.53602981567383 12.53602981567383 0 28 0 Z"/></g><g transform="translate(7.575 11.83)"><g transform="translate(22.521 20.463)"><line class="b" y2="9.219" transform="translate(9.295 1.587)"/><g transform="translate(0 0)"><path class="c" d="M3.627,0c2,0,5.608.5,5.608,1.667s-3.6,2.565-5.608,2.565S0,3.284,0,2.116,1.624,0,3.627,0Z"/><path class="c" d="M5.608,0C3.6,0,0,.5,0,1.667S3.6,4.232,5.608,4.232s3.627-.947,3.627-2.116S7.611,0,5.608,0Z" transform="translate(9.219)"/></g></g><g transform="translate(0 0)"><path class="c" d="M3.776-39.936H27.518v3.225H7.878v10.663H21.794v3.329H7.878V-10.7H31.944v3.225H3.776Z" transform="translate(5.263 39.936)"/><path class="c" d="M5.391-39.872h9.124V-36.8H10.883v26.372h3.809v3.017H5.184v-3.069H8.816V-36.8H5.391Z" transform="translate(-5.184 39.902)"/></g></g></svg>